<svg width="138" height="162" viewBox="0 0 138 162" fill="none" xmlns="http://www.w3.org/2000/svg">
<path d="M79.356 161.637V115.845C79.356 83.92 105.235 58.04 137.16 58.04V103.833C137.16 135.757 111.28 161.637 79.356 161.637Z" fill="#1F41BB"/>
<path d="M64.6613 131.171V64.88C64.6613 29.3227 35.8373 0.498689 0.281311 0.498689V66.7893C0.281311 102.347 29.1053 131.171 64.6613 131.171Z" fill="#1F41BB"/>
<path d="M123.073 28.0508C123.073 40.1228 113.287 49.9094 101.213 49.9094C89.1412 49.9094 79.356 40.1228 79.356 28.0508C79.356 15.9788 89.1412 6.19211 101.213 6.19211C113.287 6.19211 123.073 15.9788 123.073 28.0508Z" fill="#1F41BB"/>
</svg>
