<svg width="142" height="27" viewBox="0 0 142 27" fill="none" xmlns="http://www.w3.org/2000/svg">
<path d="M11.7161 1.2572V4.70782H4.33333V8.63992H10.0309V11.9568H4.33333V19.2325H0V1.2572H11.7161Z" fill="#1E232C"/>
<path d="M20.4095 5.64401C21.2654 5.13578 22.2016 4.86829 23.1913 4.86829V9.52261H21.9341C20.7839 9.52261 19.9012 9.76335 19.2592 10.2716C18.6173 10.7531 18.2963 11.5823 18.2963 12.7592V19.2057H13.963V5.02878H18.2963V7.70368C18.8313 6.84771 19.5535 6.15224 20.4095 5.64401Z" fill="#1E232C"/>
<path d="M39.107 5.02881V19.2058H34.7469V16.6379C34.3457 17.4671 33.7305 18.1358 32.928 18.6173C32.1255 19.0988 31.1893 19.3663 30.1193 19.3663C28.4877 19.3663 27.2037 18.8313 26.2407 17.7346C25.2778 16.6379 24.7963 15.1667 24.7963 13.2675V5.02881H29.1296V12.7325C29.1296 13.6955 29.3704 14.4444 29.8786 14.9794C30.3868 15.5144 31.0556 15.7819 31.9115 15.7819C32.7942 15.7819 33.4897 15.5144 33.9979 14.9527C34.5062 14.3909 34.7737 13.5885 34.7737 12.572V5.02881H39.107Z" fill="#1E232C"/>
<path d="M45.9547 15.5679H52.5082V19.2058H41.1934V15.7819L47.2922 8.63992H41.3004V5.02881H52.2675V8.45268L45.9547 15.5679Z" fill="#1E232C"/>
<path d="M58.393 15.5679H64.9465V19.2058H53.6317V15.7819L59.7305 8.63992H53.7654V5.02881H64.7325V8.45268L58.393 15.5679Z" fill="#1E232C"/>
<path d="M76.9033 6.25927C77.893 6.98149 78.5617 7.94445 78.9362 9.14816V0.401245H80.7284V19.2058H78.9095V15.4074C78.5617 16.6111 77.893 17.5741 76.8765 18.2963C75.8868 19.0185 74.6831 19.393 73.2922 19.393C72.035 19.393 70.9115 19.0988 69.9218 18.537C68.9321 17.9486 68.1564 17.1461 67.6214 16.0494C67.0597 14.9794 66.7922 13.7222 66.7922 12.2778C66.7922 10.8333 67.0597 9.54939 67.6214 8.47943C68.1831 7.40948 68.9321 6.58026 69.9218 6.01853C70.9115 5.4568 72.035 5.16256 73.2922 5.16256C74.7099 5.16256 75.9136 5.53705 76.9033 6.25927ZM70.0021 8.21194C69.0658 9.20166 68.5844 10.5659 68.5844 12.2778C68.5844 13.9897 69.0658 15.3272 70.0021 16.3436C70.9383 17.3333 72.1955 17.8416 73.7469 17.8416C74.7366 17.8416 75.6193 17.6008 76.3951 17.1461C77.1708 16.6914 77.8128 16.0494 78.2407 15.1934C78.6955 14.3642 78.9095 13.3745 78.9095 12.2778C78.9095 11.1811 78.6955 10.2181 78.2407 9.36215C77.786 8.53293 77.1708 7.86421 76.3951 7.40948C75.6193 6.95474 74.7099 6.714 73.7469 6.714C72.1955 6.74075 70.9383 7.22223 70.0021 8.21194Z" fill="#1E232C"/>
<path d="M84.5268 0.320988C84.7675 0.106996 85.0885 0 85.4897 0C85.891 0 86.1852 0.106996 86.4259 0.320988C86.6667 0.534979 86.7737 0.829218 86.7737 1.2037C86.7737 1.55144 86.6667 1.84568 86.4259 2.05967C86.1852 2.30041 85.8642 2.40741 85.463 2.40741C85.0617 2.40741 84.7675 2.30041 84.5 2.08642C84.2593 1.87243 84.1255 1.57819 84.1255 1.23045C84.1523 0.855967 84.286 0.561728 84.5268 0.320988ZM86.3724 5.34979V19.2325H84.5803V5.34979H86.3724Z" fill="#1E232C"/>
<path d="M99.6667 6.25931C100.656 6.98153 101.352 7.94449 101.7 9.1482V5.34984H103.465V19.5535C103.465 20.8375 103.198 21.961 102.663 22.9507C102.128 23.9136 101.379 24.6893 100.389 25.2243C99.4259 25.7593 98.3292 26.0268 97.072 26.0268C95.2531 26.0268 93.7819 25.5988 92.6049 24.7161C91.4547 23.8334 90.679 22.6564 90.3313 21.1585H92.1235C92.4177 22.1749 92.9794 22.9774 93.8086 23.5659C94.6379 24.1544 95.6811 24.4486 96.965 24.4486C97.8477 24.4486 98.6502 24.2614 99.3724 23.8869C100.095 23.5124 100.656 22.9507 101.084 22.2017C101.512 21.4527 101.7 20.57 101.7 19.5535V15.4075C101.325 16.6112 100.656 17.5741 99.6667 18.2963C98.677 19.0186 97.4733 19.3931 96.0823 19.3931C94.8251 19.3931 93.7017 19.0988 92.7119 18.5371C91.7222 17.9486 90.9465 17.1461 90.4115 16.0494C89.8498 14.9795 89.5823 13.7223 89.5823 12.2778C89.5823 10.8334 89.8498 9.54943 90.4115 8.47947C90.9733 7.40951 91.7222 6.58029 92.7119 6.01856C93.7017 5.45684 94.8251 5.1626 96.0823 5.1626C97.4733 5.1626 98.677 5.53708 99.6667 6.25931ZM92.7922 8.21198C91.856 9.20169 91.3745 10.5659 91.3745 12.2778C91.3745 13.9898 91.856 15.3272 92.7922 16.3437C93.7284 17.3334 94.9856 17.8416 96.537 17.8416C97.5268 17.8416 98.4095 17.6009 99.1852 17.1461C99.9609 16.6914 100.603 16.0494 101.031 15.1935C101.486 14.3642 101.7 13.3745 101.7 12.2778C101.7 11.1811 101.486 10.2182 101.031 9.36219C100.576 8.53297 99.9609 7.86424 99.1852 7.40951C98.4095 6.95478 97.5 6.71404 96.537 6.71404C94.9588 6.74079 93.7284 7.22227 92.7922 8.21198Z" fill="#1E232C"/>
<path d="M107.29 0.320988C107.531 0.106996 107.852 0 108.253 0C108.654 0 108.949 0.106996 109.189 0.320988C109.43 0.534979 109.537 0.829218 109.537 1.2037C109.537 1.55144 109.43 1.84568 109.189 2.05967C108.949 2.27366 108.628 2.38066 108.253 2.38066C107.852 2.38066 107.558 2.27366 107.29 2.05967C107.049 1.84568 106.916 1.55144 106.916 1.2037C106.916 0.855967 107.049 0.561728 107.29 0.320988ZM109.136 5.34979V19.2325H107.344V5.34979H109.136Z" fill="#1E232C"/>
<path d="M119.3 17.6276V19.2058H117.642C116.305 19.2058 115.315 18.8848 114.646 18.2428C113.977 17.6009 113.656 16.5309 113.656 15.033V6.87453H111.543V5.34983H113.656V1.81897H115.449V5.34983H119.274V6.90127H115.449V15.0865C115.449 16.0762 115.636 16.7449 115.984 17.1194C116.331 17.4939 116.973 17.6544 117.856 17.6544H119.3V17.6276Z" fill="#1E232C"/>
<path d="M131.658 6.25931C132.648 6.98153 133.344 7.94449 133.691 9.1482V5.34984H135.457V19.2326H133.691V15.4075C133.317 16.6112 132.648 17.5741 131.658 18.2963C130.669 19.0186 129.465 19.3931 128.074 19.3931C126.817 19.3931 125.693 19.0988 124.704 18.5371C123.714 17.9486 122.938 17.1461 122.403 16.0494C121.842 14.9795 121.574 13.7223 121.574 12.2778C121.574 10.8334 121.842 9.54943 122.403 8.47947C122.965 7.40951 123.714 6.58029 124.704 6.01856C125.693 5.45684 126.817 5.1626 128.074 5.1626C129.465 5.1626 130.669 5.53708 131.658 6.25931ZM124.784 8.21198C123.848 9.20169 123.366 10.5659 123.366 12.2778C123.366 13.9898 123.848 15.3272 124.784 16.3437C125.72 17.3334 126.977 17.8416 128.529 17.8416C129.519 17.8416 130.401 17.6009 131.177 17.1461C131.953 16.6914 132.595 16.0494 133.023 15.1935C133.477 14.3642 133.691 13.3745 133.691 12.2778C133.691 11.1811 133.477 10.2182 133.023 9.36219C132.568 8.53297 131.953 7.86424 131.177 7.40951C130.401 6.95478 129.492 6.71404 128.529 6.71404C126.977 6.74079 125.72 7.22227 124.784 8.21198Z" fill="#1E232C"/>
<path d="M141.128 0.401245V19.2058H139.335V0.401245H141.128Z" fill="#1E232C"/>
</svg>
